<svg width="257" height="57" viewBox="0 0 257 57" fill="none" xmlns="http://www.w3.org/2000/svg">
<path d="M88.12 28.32C88.12 37.8635 80.3835 45.6 70.84 45.6C66.395 45.6 53.5432 37.6241 41.08 33.964C26.7844 29.7658 13 29.7304 13 28.32C13 26.7814 26.7844 21.9549 41.08 17.7926C53.5432 14.1639 66.395 11.04 70.84 11.04C80.3835 11.04 88.12 18.7766 88.12 28.32Z" fill="#FFE100"/>
<path d="M122.242 45.6619C120.509 45.6619 118.933 45.4413 117.514 45C116.096 44.5902 114.867 44.0229 113.826 43.2979C112.786 42.5414 111.967 41.6904 111.368 40.7448C110.8 39.7992 110.485 38.8063 110.422 37.7662L116.9 36.2532C117.12 37.3249 117.672 38.2232 118.554 38.9482C119.437 39.6731 120.682 40.0356 122.29 40.0356C123.424 40.0356 124.464 39.8622 125.41 39.5155C126.387 39.1373 127.175 38.5857 127.774 37.8607C128.373 37.1358 128.672 36.2532 128.672 35.213C128.672 34.4566 128.515 33.8577 128.2 33.4164C127.884 32.9436 127.427 32.5811 126.828 32.329C126.261 32.0453 125.568 31.8089 124.748 31.6198L120.871 30.6269C119.39 30.2486 118.097 29.6498 116.994 28.8302C115.922 28.0107 115.134 26.9863 114.63 25.757C114.126 24.5278 113.952 23.1094 114.11 21.5018C114.331 19.4215 114.993 17.6406 116.096 16.1592C117.231 14.6462 118.744 13.48 120.635 12.6605C122.526 11.841 124.701 11.4312 127.159 11.4312C129.366 11.4312 131.225 11.7622 132.738 12.4241C134.283 13.0545 135.512 13.9528 136.426 15.119C137.34 16.2853 137.955 17.6406 138.27 19.1851L131.793 20.7926C131.604 19.721 131.068 18.8384 130.185 18.145C129.303 17.42 128.073 17.0575 126.497 17.0575C125.394 17.0575 124.401 17.2466 123.519 17.6249C122.636 17.9716 121.927 18.4917 121.391 19.1851C120.887 19.8786 120.635 20.7138 120.635 21.691C120.635 22.5735 120.934 23.3142 121.533 23.9131C122.132 24.4805 122.967 24.8902 124.039 25.1424L127.963 26.1353C129.917 26.6396 131.43 27.333 132.502 28.2156C133.605 29.0982 134.393 30.1068 134.866 31.2415C135.339 32.3762 135.575 33.574 135.575 34.8348C135.575 37.1988 134.961 39.2003 133.731 40.8394C132.534 42.4469 130.926 43.6604 128.909 44.4799C126.891 45.2679 124.669 45.6619 122.242 45.6619ZM139.567 45L145.098 11.904H151.576L146.99 39.09H161.599L160.606 45H139.567ZM164.961 45L170.493 11.904H176.97L171.439 45H164.961ZM193.616 45.5674C190.558 45.5674 187.911 44.9212 185.673 43.6289C183.466 42.305 181.796 40.4926 180.661 38.1917C179.558 35.8592 179.117 33.18 179.337 30.1541C179.526 27.5694 180.125 25.1424 181.134 22.873C182.143 20.572 183.498 18.5705 185.2 16.8684C186.934 15.1348 188.919 13.7794 191.157 12.8023C193.395 11.8252 195.838 11.3366 198.486 11.3366C200.818 11.3366 202.914 11.7464 204.774 12.5659C206.634 13.3854 208.194 14.5359 209.455 16.0174C210.715 17.4673 211.582 19.1378 212.055 21.029L205.909 22.873C205.562 21.7067 205.026 20.7138 204.301 19.8943C203.576 19.0433 202.709 18.3971 201.701 17.9558C200.692 17.483 199.573 17.2466 198.344 17.2466C196.673 17.2466 195.113 17.5934 193.663 18.2868C192.213 18.9487 190.937 19.8786 189.833 21.0763C188.73 22.2741 187.832 23.6452 187.138 25.1897C186.477 26.7026 186.083 28.3102 185.956 30.0122C185.767 31.935 185.972 33.6213 186.571 35.0712C187.17 36.5211 188.084 37.6558 189.313 38.4754C190.574 39.2949 192.087 39.7046 193.852 39.7046C195.302 39.7046 196.658 39.4367 197.918 38.9009C199.179 38.3335 200.33 37.577 201.37 36.6314C202.41 35.6858 203.292 34.6142 204.017 33.4164L209.786 35.9695C208.651 37.8922 207.248 39.5786 205.578 41.0285C203.907 42.4784 202.047 43.5974 199.999 44.3854C197.95 45.1734 195.822 45.5674 193.616 45.5674ZM213.026 45L218.558 11.904H239.503L238.51 17.814H224.042L222.766 25.3315H235.248L234.302 31.0997H221.82L220.449 39.09H235.153L234.16 45H213.026Z" fill="white"/>
</svg>
